<svg xmlns="http://www.w3.org/2000/svg" version="1.1" xmlns:xlink="http://www.w3.org/1999/xlink" viewBox="0 0 200 200"><rect width="200" height="200" fill="url('#gradient')"></rect><defs><linearGradient id="gradient" gradientTransform="rotate(42 0.5 0.5)"><stop offset="0%" stop-color="#7b1fa2"></stop><stop offset="100%" stop-color="#85324b"></stop></linearGradient></defs><g><g fill="#6ebdbd" transform="matrix(1.5429851354103035,0,0,1.5429851354103035,25.214714113958635,111.42043354490386)" stroke="#ffffff" stroke-width="0"><path d="M0.51-5.36L0.51-5.36Q0.51-7.87 1.59-9.32Q2.68-10.76 4.62-10.76L4.62-10.76Q6.04-10.76 7.00-9.65L7.00-9.65L7.00-15L10.30-15L10.30 0L7.34 0L7.18-1.13Q6.16 0.20 4.60 0.20L4.60 0.20Q2.71 0.20 1.61-1.25Q0.51-2.70 0.51-5.36ZM3.81-5.76L3.80-5.16Q3.80-2.34 5.44-2.34L5.44-2.34Q6.53-2.34 7.00-3.26L7.00-3.26L7.00-7.29Q6.55-8.22 5.46-8.22L5.46-8.22Q3.94-8.22 3.81-5.76L3.81-5.76ZM11.77-4.82L11.76-5.38Q11.76-6.96 12.37-8.20Q12.99-9.43 14.14-10.10Q15.29-10.76 16.85-10.76L16.85-10.76Q19.22-10.76 20.59-9.29Q21.95-7.82 21.95-5.29L21.95-5.29L21.95-5.18Q21.95-2.71 20.58-1.25Q19.21 0.20 16.87 0.20L16.87 0.20Q14.61 0.20 13.24-1.16Q11.88-2.51 11.77-4.82L11.77-4.82ZM15.06-5.77L15.05-5.18Q15.05-3.71 15.51-3.03Q15.97-2.34 16.87-2.34L16.87-2.34Q18.62-2.34 18.66-5.05L18.66-5.05L18.66-5.38Q18.66-8.22 16.85-8.22L16.85-8.22Q15.20-8.22 15.06-5.77L15.06-5.77ZM29.85-10.64L29.79-7.59L28.71-7.67Q27.16-7.67 26.72-6.69L26.72-6.69L26.72 0L23.43 0L23.43-10.57L26.51-10.57L26.62-9.21Q27.45-10.76 28.94-10.76L28.94-10.76Q29.46-10.76 29.85-10.64L29.85-10.64ZM40.79-5.36L40.79-5.20Q40.79-2.60 39.72-1.20Q38.64 0.20 36.69 0.20L36.69 0.20Q35.08 0.20 34.09-1.08L34.09-1.08L33.96 0L31.01 0L31.01-15L34.30-15L34.30-9.72Q35.21-10.76 36.67-10.76L36.67-10.76Q38.64-10.76 39.72-9.35Q40.79-7.93 40.79-5.36L40.79-5.36ZM37.49-5.40L37.49-5.40Q37.49-6.92 37.08-7.57Q36.68-8.22 35.84-8.22L35.84-8.22Q34.73-8.22 34.30-7.37L34.30-7.37L34.30-3.17Q34.72-2.33 35.86-2.33L35.86-2.33Q37.02-2.33 37.33-3.47L37.33-3.47Q37.49-4.02 37.49-5.40ZM45.71-10.57L45.71 0L42.41 0L42.41-10.57L45.71-10.57ZM42.22-13.29L42.22-13.29Q42.22-13.99 42.72-14.44Q43.23-14.89 44.04-14.89Q44.85-14.89 45.36-14.44Q45.87-13.99 45.87-13.29Q45.87-12.59 45.36-12.14Q44.85-11.69 44.04-11.69Q43.23-11.69 42.72-12.14Q42.22-12.59 42.22-13.29ZM47.68-10.57L50.76-10.57L50.87-9.33Q51.96-10.76 53.89-10.76L53.89-10.76Q55.54-10.76 56.35-9.78Q57.17-8.79 57.20-6.81L57.20-6.81L57.20 0L53.90 0L53.90-6.67Q53.90-7.47 53.57-7.85Q53.25-8.22 52.40-8.22L52.40-8.22Q51.44-8.22 50.97-7.46L50.97-7.46L50.97 0L47.68 0L47.68-10.57ZM61.05-3.19L61.05-3.19Q61.84-3.19 62.35-2.73Q62.87-2.27 62.87-1.54Q62.87-0.82 62.35-0.36Q61.84 0.11 61.05 0.11L61.05 0.11Q60.26 0.11 59.75-0.36Q59.24-0.83 59.24-1.54Q59.24-2.26 59.75-2.72Q60.26-3.19 61.05-3.19ZM64.65-5.36L64.65-5.36Q64.65-7.87 65.73-9.32Q66.82-10.76 68.76-10.76L68.76-10.76Q70.18-10.76 71.14-9.65L71.14-9.65L71.14-15L74.44-15L74.44 0L71.48 0L71.32-1.13Q70.30 0.20 68.74 0.20L68.74 0.20Q66.86 0.20 65.75-1.25Q64.65-2.70 64.65-5.36ZM67.95-5.76L67.94-5.16Q67.94-2.34 69.58-2.34L69.58-2.34Q70.67-2.34 71.14-3.26L71.14-3.26L71.14-7.29Q70.69-8.22 69.60-8.22L69.60-8.22Q68.08-8.22 67.95-5.76L67.95-5.76ZM81.43 0.20L81.43 0.20Q78.99 0.20 77.49-1.25Q75.99-2.71 75.99-5.03L75.99-5.03L75.99-5.30Q75.99-6.92 76.59-8.16Q77.19-9.40 78.34-10.08Q79.49-10.76 81.07-10.76L81.07-10.76Q83.30-10.76 84.59-9.38Q85.88-8.00 85.88-5.53L85.88-5.53L85.88-4.25L79.34-4.25Q79.51-3.36 80.11-2.85Q80.70-2.34 81.65-2.34L81.65-2.34Q83.21-2.34 84.09-3.44L84.09-3.44L85.60-1.66Q84.98-0.81 83.85-0.31Q82.72 0.20 81.43 0.20ZM81.05-8.22L81.05-8.22Q79.61-8.22 79.34-6.31L79.34-6.31L82.66-6.31L82.66-6.56Q82.68-7.35 82.26-7.79Q81.84-8.22 81.05-8.22ZM89.65-10.57L91.29-3.92L92.96-10.57L96.43-10.57L92.98 0L89.62 0L86.17-10.57L89.65-10.57Z"></path></g></g></svg>